<svg version="1.1" id="Layer_1" xmlns="http://www.w3.org/2000/svg" xmlns:xlink="http://www.w3.org/1999/xlink" x="0px" y="0px"
	 width="100%" viewBox="0 0 1155 931" enable-background="new 0 0 1155 931" xml:space="preserve">
<path fill="#FFFFFF" opacity="1.000000" stroke="none" 
	d="
M1154.000000,932.000000 
	C770.967285,932.000000 387.934540,932.000000 4.478184,931.532043 
	C4.054559,724.481812 4.054559,517.899536 4.054559,311.342865 
	C387.636475,311.342865 770.672607,311.342865 1153.941040,311.342865 
	C1153.941040,313.431793 1153.941040,315.243835 1153.941040,317.055878 
	C1153.941040,510.538788 1153.940063,704.021729 1153.943359,897.504639 
	C1153.943604,909.003113 1153.980225,920.501526 1154.000000,932.000000 
z"/>
<path fill="#1E1E1E" opacity="1.000000" stroke="none" 
	d="
M1154.250000,932.000000 
	C1153.980225,920.501526 1153.943604,909.003113 1153.943359,897.504639 
	C1153.940063,704.021729 1153.941040,510.538788 1153.941040,317.055878 
	C1153.941040,315.243835 1153.941040,313.431793 1153.941040,311.342865 
	C770.672607,311.342865 387.636475,311.342865 4.054559,311.342865 
	C4.054559,517.899536 4.054559,724.481812 4.027279,931.532043 
	C4.000000,932.000000 3.500000,932.000000 3.222726,931.544678 
	C2.944072,623.734375 2.942820,316.379333 2.938876,9.024324 
	C2.938850,7.025822 2.901976,5.027318 3.357385,2.995301 
	C4.665514,2.953614 5.498566,2.938281 6.331617,2.938278 
	C387.761414,2.937139 769.191162,2.936934 1150.620972,2.940714 
	C1152.119873,2.940729 1153.618652,2.998223 1155.090332,3.481438 
	C1155.061523,311.290833 1155.060303,618.647644 1155.056274,926.004456 
	C1155.056274,928.002991 1155.019531,930.001465 1155.000000,932.000000 
	C1155.000000,932.000000 1154.500000,932.000000 1154.250000,932.000000 
M1151.183350,220.472366 
	C1150.107056,219.995377 1149.031616,219.104797 1147.954224,219.102173 
	C1123.918579,219.043442 1099.882935,219.082565 1075.030273,219.063461 
	C1038.516357,219.094879 1002.002380,219.118042 965.488464,219.186356 
	C963.946289,219.189240 962.404846,219.611755 959.951660,219.700974 
	C643.315063,219.694458 326.678497,219.687576 10.041931,219.693024 
	C8.624702,219.693039 7.207476,219.868637 6.082031,219.942963 
	C6.082031,250.048279 6.082031,279.613586 6.082031,309.318665 
	C8.311017,309.318665 10.139508,309.318634 11.968000,309.318634 
	C326.438202,309.318634 640.908386,309.318939 955.378601,309.312378 
	C957.208435,309.312317 959.038330,309.216858 961.404053,309.845306 
	C998.449524,309.877197 1035.494995,309.927673 1072.540283,309.861084 
	C1073.795166,309.858826 1075.048096,308.678467 1076.913086,308.095337 
	C1077.316895,308.035522 1077.720581,307.975708 1079.045776,307.938995 
	C1102.932617,307.938995 1126.819458,307.938995 1150.913574,307.938995 
	C1150.913574,278.627045 1150.913574,249.873123 1151.183350,220.472366 
M1153.910400,68.110931 
	C1153.910400,46.851990 1153.910400,25.593052 1153.910400,4.362820 
	C770.334473,4.362820 387.352631,4.362820 4.201858,4.362820 
	C4.201858,26.116385 4.201858,47.581409 4.070243,69.969574 
	C4.070243,119.221985 4.070243,168.474396 4.070243,217.679901 
	C387.649384,217.679901 770.656494,217.679901 1153.941162,217.679901 
	C1153.941162,214.784470 1153.943481,212.146896 1153.940796,209.509338 
	C1153.893677,162.688293 1153.845825,115.867241 1153.910400,68.110931 
z"/>
<path fill="#503848" opacity="1.000000" stroke="none" 
	d="
M1155.117554,3.028873 
	C1153.618652,2.998223 1152.119873,2.940729 1150.620972,2.940714 
	C769.191162,2.936934 387.761414,2.937139 6.331617,2.938278 
	C5.498566,2.938281 4.665514,2.953614 3.044026,2.976849 
	C1.837060,2.994608 1.418530,2.997304 1.000000,3.000000 
	C1.333333,2.333333 1.548027,1.216341 2.023962,1.090954 
	C3.114909,0.803541 4.333333,1.000000 5.500000,1.000000 
	C387.500000,1.000000 769.500000,0.998854 1151.500000,1.041216 
	C1153.000000,1.041383 1154.500000,1.666664 1155.779785,2.516426 
	C1155.559448,3.032854 1155.117554,3.028873 1155.117554,3.028873 
z"/>
<path fill="#FFFFFF" opacity="1.000000" stroke="none" 
	d="
M1.000000,3.455951 
	C1.418530,2.997304 1.837060,2.994608 2.568949,3.010364 
	C2.901976,5.027318 2.938850,7.025822 2.938876,9.024324 
	C2.942820,316.379333 2.944072,623.734375 2.972728,931.544678 
	C2.333338,931.667114 1.216306,931.452942 1.090968,930.977356 
	C0.803582,929.886963 1.000000,928.669006 1.000000,927.502869 
	C1.000000,619.639221 1.000000,311.775543 1.000000,3.455951 
z"/>
<path fill="#FFFFFF" opacity="1.000000" stroke="none" 
	d="
M1155.090332,3.481438 
	C1155.117554,3.028873 1155.559448,3.032854 1155.779785,3.016427 
	C1156.000000,312.666656 1156.000000,622.333313 1155.500000,932.000000 
	C1155.019531,930.001465 1155.056274,928.002991 1155.056274,926.004456 
	C1155.060303,618.647644 1155.061523,311.290833 1155.090332,3.481438 
z"/>
<path fill="#FFFFFF" opacity="1.000000" stroke="none" 
	d="
M1153.798096,69.046196 
	C1153.845825,115.867241 1153.893677,162.688293 1153.940796,209.509338 
	C1153.943481,212.146896 1153.941162,214.784470 1153.941162,217.679901 
	C770.656494,217.679901 387.649384,217.679901 4.070243,217.679901 
	C4.070243,168.474396 4.070243,119.221985 4.591196,69.491318 
	C387.174591,69.008743 769.237000,69.004387 1151.299438,69.001991 
	C1152.132324,69.001984 1152.965210,69.030823 1153.798096,69.046196 
M553.216614,156.058746 
	C555.404114,161.201797 559.172546,164.015259 564.878540,163.621857 
	C570.258301,163.250931 573.840271,160.036575 575.478271,153.876572 
	C577.441162,146.494736 577.521240,139.039017 575.108215,131.720688 
	C573.215576,125.980919 569.485168,123.134216 564.228516,123.045654 
	C558.687988,122.952293 554.787476,125.789825 552.878784,131.737091 
	C550.363831,139.573410 550.583191,147.468140 553.216614,156.058746 
M682.502136,144.048737 
	C681.437073,143.533035 680.372070,143.017319 679.185791,142.442917 
	C684.640747,138.502060 686.298279,134.915970 684.815430,130.022079 
	C683.237732,124.814972 678.800537,123.761703 674.188904,123.285545 
	C672.220032,123.082260 670.186096,123.189331 668.211853,123.416855 
	C661.845825,124.150505 660.433899,127.369179 664.181335,134.299911 
	C664.918701,132.526642 665.493774,131.305069 665.940247,130.038177 
	C667.075500,126.816406 670.990112,124.913269 673.275635,127.208740 
	C675.069580,129.010498 676.102539,132.360138 676.014465,134.972961 
	C675.953918,136.768539 673.528992,138.620041 671.903503,140.177933 
	C670.880615,141.158218 669.382080,141.642151 668.096924,142.348755 
	C669.466309,143.128159 670.952637,143.758438 672.178650,144.720581 
	C674.213196,146.317230 677.032410,147.787140 677.796509,149.926437 
	C678.963623,153.193970 678.427795,156.957840 675.031616,159.300781 
	C671.044983,162.051010 666.383850,160.251999 664.634155,155.526352 
	C664.239258,154.459885 663.215576,153.626236 662.481323,152.685410 
	C661.374023,155.314224 661.127136,157.451797 661.467468,159.491379 
	C661.668579,160.696747 662.762817,162.687408 663.516541,162.716080 
	C668.778992,162.916183 674.297424,163.650162 679.277283,162.397675 
	C687.833862,160.245667 689.561890,150.738449 682.502136,144.048737 
M647.327515,130.280930 
	C649.429993,130.280930 651.532471,130.280930 653.642456,130.280930 
	C653.642456,127.796234 653.642456,125.895706 653.642456,123.974602 
	C646.732056,123.974602 640.141174,123.974602 633.487671,123.974602 
	C633.487671,130.693405 633.487671,137.116379 633.487671,144.085068 
	C635.739868,143.670288 637.720642,142.793167 639.496338,143.100586 
	C642.052856,143.543167 646.290833,144.463379 646.582703,145.856384 
	C647.408875,149.798157 647.208496,154.264679 646.074768,158.132370 
	C645.699890,159.411179 641.227234,160.021591 638.674866,159.906082 
	C637.385376,159.847717 636.129456,157.545074 634.990845,156.149109 
	C634.129944,155.093521 633.478943,153.866623 632.734497,152.715958 
	C632.259216,152.957748 631.783997,153.199554 631.308777,153.441345 
	C631.420349,155.745224 631.310608,158.092133 631.746216,160.333038 
	C631.935974,161.309189 633.210754,162.768539 634.050964,162.809311 
	C638.822632,163.040848 643.717163,163.531342 648.368469,162.744125 
	C654.143372,161.766769 657.255798,156.531372 656.845520,150.387772 
	C656.444519,144.382950 652.941589,140.645065 646.746155,140.055832 
	C643.635437,139.759979 640.473267,140.004257 637.114868,140.004257 
	C637.114868,136.780838 637.114868,133.717682 637.114868,130.280319 
	C640.427673,130.280319 643.399658,130.280319 647.327515,130.280930 
M477.605225,151.106934 
	C474.854645,154.502106 469.645844,156.684906 471.904846,162.717682 
	C480.004547,162.717682 488.056000,162.717682 496.198303,162.717682 
	C496.198303,160.488876 496.198303,158.579056 496.198303,155.943665 
	C490.262604,155.943665 484.627380,155.943665 477.711426,155.943665 
	C480.231964,153.801590 481.651611,152.668594 482.988037,151.444748 
	C486.297546,148.414154 490.035797,145.706375 492.762482,142.213699 
	C499.247803,133.906494 495.202850,124.413757 484.805939,123.397415 
	C480.973358,123.022751 477.024200,123.840836 473.402832,124.095581 
	C473.402832,127.804619 473.402832,130.617554 473.402832,134.674622 
	C474.788757,132.977249 475.756195,132.340637 475.818329,131.625366 
	C476.166168,127.621910 478.366516,125.891212 482.159119,126.493141 
	C486.014038,127.104965 486.960999,130.024628 487.095306,133.507996 
	C487.382904,140.965469 482.926941,145.864807 477.605225,151.106934 
M505.085724,153.651901 
	C502.381989,156.069855 500.157227,158.651901 501.943451,162.685150 
	C510.063049,162.685150 518.112061,162.685150 526.170959,162.685150 
	C526.170959,160.430969 526.170959,158.520782 526.170959,156.103226 
	C520.287109,156.103226 514.732422,156.103226 507.858429,156.103226 
	C510.118225,154.045700 511.385925,152.872238 512.674438,151.722122 
	C515.653992,149.062637 518.844666,146.604828 521.580566,143.715622 
	C525.380493,139.702713 527.042603,134.811737 524.834900,129.475433 
	C522.655212,124.206894 517.684448,123.318130 512.741211,123.252525 
	C509.517883,123.209755 506.284149,123.948921 502.771881,124.371918 
	C502.945984,127.851791 503.086548,130.661789 503.227142,133.471802 
	C503.648438,133.546921 504.069733,133.622040 504.491028,133.697159 
	C504.990173,132.818939 505.831329,131.976730 505.928223,131.056168 
	C506.309357,127.435310 508.712524,125.611229 511.669800,126.626106 
	C513.822998,127.365074 516.883179,130.365448 516.703064,132.055466 
	C516.215088,136.635635 514.737122,141.318924 512.642395,145.449448 
	C511.127411,148.436752 507.998108,150.605347 505.085724,153.651901 
M590.527039,156.336792 
	C590.768250,158.717728 590.041748,160.071182 587.303406,160.127533 
	C586.102783,160.152237 584.921631,161.121765 583.731628,161.662292 
	C583.875183,161.923141 584.018799,162.183975 584.162354,162.444824 
	C591.401733,162.444824 598.641113,162.444824 605.880493,162.444824 
	C605.945679,161.982666 606.010803,161.520508 606.075989,161.058350 
	C603.890320,160.511581 601.704712,159.964813 599.030273,159.295761 
	C599.030273,147.494370 599.030273,135.584534 599.030273,123.734100 
	C593.783569,123.230988 585.879517,127.531410 583.945007,131.897400 
	C586.018982,131.556213 587.899048,131.246933 590.529175,130.814240 
	C590.529175,139.179810 590.529175,147.276382 590.527039,156.336792 
M613.982849,158.609879 
	C615.028381,163.079208 617.598816,165.117416 620.530884,163.338181 
	C621.971741,162.463882 623.631592,160.172821 623.416626,158.801117 
	C623.152222,157.113693 620.971436,154.429382 619.733093,154.490433 
	C617.790894,154.586166 615.944214,156.619751 613.982849,158.609879 
M543.231873,160.781677 
	C542.543274,158.792053 542.358582,156.248932 540.991638,155.004425 
	C540.056335,154.152908 537.058228,154.520889 535.753479,155.439301 
	C534.629517,156.230515 533.959534,158.671921 534.203430,160.206619 
	C534.849426,164.272949 539.029968,164.785110 543.231873,160.781677 
M616.964783,135.184387 
	C614.129883,136.618820 612.989197,139.141983 614.514954,141.713486 
	C615.372620,143.158905 618.252869,144.673477 619.601562,144.237549 
	C621.293213,143.690781 623.383118,141.220978 623.456726,139.502167 
	C623.595337,136.263855 621.169678,134.607605 616.964783,135.184387 
M540.089050,135.056900 
	C537.056580,134.600433 534.385071,135.570389 534.237488,138.728912 
	C534.153564,140.525391 535.679688,143.210037 537.242371,144.013565 
	C538.495239,144.657822 541.586121,143.638855 542.642090,142.355103 
	C544.806030,139.724350 543.623718,137.108871 540.089050,135.056900 
z"/>
<path fill="#FFFFFF" opacity="1.000000" stroke="none" 
	d="
M960.868164,309.165955 
	C959.038330,309.216858 957.208435,309.312317 955.378601,309.312378 
	C640.908386,309.318939 326.438202,309.318634 11.968000,309.318634 
	C10.139508,309.318634 8.311017,309.318665 6.082031,309.318665 
	C6.082031,279.613586 6.082031,250.048279 6.082031,219.942963 
	C7.207476,219.868637 8.624702,219.693039 10.041931,219.693024 
	C326.678497,219.687576 643.315063,219.694458 960.431152,219.801758 
	C960.910706,219.902542 960.971436,219.952499 960.971680,220.424347 
	C960.971863,250.280014 960.971741,279.663849 960.942261,309.074158 
	C960.912842,309.100647 960.868164,309.165955 960.868164,309.165955 
M176.286438,276.707428 
	C176.531723,272.093201 176.342331,267.391968 177.239975,262.908356 
	C177.590424,261.157928 180.385422,259.896912 182.067001,258.412994 
	C183.127563,260.018494 184.876389,261.531982 185.105789,263.248566 
	C185.587097,266.850220 185.101547,270.571594 185.382263,274.215332 
	C185.466324,275.306610 186.774094,276.303589 188.249191,278.357269 
	C188.767456,276.071228 188.965866,275.596069 188.968979,275.119690 
	C188.996094,270.955566 189.092392,266.788055 188.966888,262.627655 
	C188.770096,256.104797 184.732254,253.703217 178.897034,256.481171 
	C177.942520,256.935547 176.849960,257.591370 175.899658,257.480652 
	C171.003021,256.910278 166.131958,256.120300 161.251526,255.406906 
	C161.251526,263.221893 161.251526,270.004425 161.251526,276.786957 
	C161.738129,277.003204 162.224716,277.219452 162.711319,277.435699 
	C163.369476,276.267487 164.497360,275.138092 164.597702,273.923798 
	C164.898621,270.281677 164.271423,266.485504 165.072418,262.993988 
	C165.484924,261.195801 168.161255,259.916931 169.814636,258.403412 
	C170.905304,259.980774 172.692505,261.456726 172.940079,263.156860 
	C173.439056,266.583282 172.909149,270.148407 173.213638,273.620392 
	C173.316391,274.791870 174.658661,275.854645 176.286438,276.707428 
M35.909248,271.371552 
	C36.786682,275.316284 39.234673,277.564178 43.282341,277.366150 
	C46.581081,277.204742 49.852291,276.480743 53.256355,275.988770 
	C53.256355,267.109833 53.256355,257.821747 53.256355,248.317566 
	C52.327015,248.218704 50.873074,247.975189 50.849293,248.074417 
	C50.159645,250.951904 49.612949,253.863647 49.040852,256.782196 
	C39.291561,253.815353 34.893055,257.329865 35.332745,267.622223 
	C35.375004,268.611420 35.610420,269.592377 35.909248,271.371552 
M70.436493,257.007812 
	C64.843384,254.439224 61.057552,255.247726 58.932327,259.464630 
	C56.087605,265.109161 57.747383,274.771729 61.997086,276.694092 
	C63.162930,277.221466 64.602982,277.496338 65.869545,277.377777 
	C69.040855,277.080994 72.184860,276.492432 75.721954,275.963806 
	C75.721954,268.014465 75.806068,259.540588 75.619370,251.072708 
	C75.595032,249.968903 74.177460,248.895782 72.713364,246.834335 
	C71.978691,251.562805 71.524490,254.486099 70.436493,257.007812 
M89.174240,271.540955 
	C88.576103,273.197632 87.977966,274.854340 87.379829,276.511047 
	C87.821434,276.866241 88.263039,277.221436 88.704651,277.576630 
	C89.945053,276.197754 91.952583,274.983124 92.289345,273.410706 
	C93.557335,267.490021 98.015129,269.405701 101.681168,268.960297 
	C105.432159,268.504547 107.545425,269.728485 108.398659,273.536652 
	C108.885422,275.709198 109.762245,278.238953 113.368599,276.196320 
	C109.995026,267.840179 106.711670,259.535065 103.225792,251.315857 
	C102.838791,250.403366 101.155037,249.313705 100.325653,249.490829 
	C99.156914,249.740402 97.759483,250.892761 97.268173,252.013489 
	C94.541176,258.234070 92.058899,264.561981 89.174240,271.540955 
M22.580057,249.888382 
	C19.985399,248.644440 18.245623,249.245636 17.135088,252.049179 
	C13.908636,260.194336 10.561579,268.291718 7.261834,276.407837 
	C7.544151,276.754913 7.826469,277.102020 8.108788,277.449097 
	C9.349586,276.629364 11.516941,275.962738 11.681797,274.965179 
	C12.807569,268.153168 17.751608,269.286743 22.505964,268.870117 
	C27.399851,268.441193 27.441841,271.984406 28.932657,274.731598 
	C29.553802,275.876221 31.115337,276.510498 32.249268,277.376831 
	C32.627335,276.996979 33.005405,276.617126 33.383472,276.237274 
	C29.916891,267.660431 26.450310,259.083557 22.580057,249.888382 
M141.962814,262.940765 
	C141.974213,257.952759 139.109879,255.577759 134.496323,255.430054 
	C130.692871,255.308243 126.891121,255.837570 125.520073,261.230133 
	C129.946045,261.803101 136.110306,253.033371 138.310181,263.531494 
	C133.065460,264.867798 126.311790,262.493561 124.731163,269.739960 
	C124.301613,271.709229 125.687286,275.793152 126.900795,276.076569 
	C130.398621,276.893524 134.233810,276.265930 137.936478,276.205719 
	C137.875992,276.005005 137.815506,275.804260 137.755020,275.603546 
	C140.043457,276.100494 142.331894,276.597473 144.620331,277.094421 
	C144.790329,276.684418 144.960312,276.274445 145.130310,275.864441 
	C139.849747,272.869507 142.672653,267.926941 141.962814,262.940765 
M147.675705,260.840820 
	C147.675705,266.096893 147.675705,271.352936 147.675705,276.609009 
	C148.201630,276.871307 148.727554,277.133636 149.253479,277.395966 
	C149.970505,276.346405 151.160614,275.358612 151.307419,274.234558 
	C151.626236,271.793640 151.294891,269.276093 151.443954,266.802795 
	C151.659256,263.229919 151.217728,259.172668 156.552994,258.681305 
	C156.974396,258.642487 157.268814,257.224579 157.622238,256.447601 
	C156.780365,256.161255 155.830536,255.479385 155.119766,255.673401 
	C153.763519,256.043549 152.501068,257.539215 151.275146,257.455994 
	C147.825958,257.221771 147.841064,256.999268 147.675705,260.840820 
M120.025032,271.339172 
	C120.025032,263.614716 120.025032,255.890289 120.025032,248.165848 
	C119.478622,247.969803 118.932213,247.773743 118.385803,247.577698 
	C117.685020,248.618256 116.400246,249.645782 116.376671,250.701462 
	C116.202454,258.503876 116.194290,266.313843 116.373520,274.115967 
	C116.399086,275.228973 117.715401,276.312286 118.434341,277.409332 
	C118.895378,277.169769 119.356415,276.930176 119.817451,276.690613 
	C119.886642,275.224945 119.955841,273.759277 120.025032,271.339172 
z"/>
<path fill="#74CBED" opacity="1.000000" stroke="none" 
	d="
M1153.854248,68.578568 
	C1152.965210,69.030823 1152.132324,69.001984 1151.299438,69.001991 
	C769.237000,69.004387 387.174591,69.008743 4.657003,69.029747 
	C4.201858,47.581409 4.201858,26.116385 4.201858,4.362820 
	C387.352631,4.362820 770.334473,4.362820 1153.910400,4.362820 
	C1153.910400,25.593052 1153.910400,46.851990 1153.854248,68.578568 
M505.750061,28.629827 
	C504.546997,25.534531 503.390961,22.419832 502.124664,19.350615 
	C501.241211,17.209244 501.304199,14.510883 497.606171,14.458099 
	C493.974243,14.406260 493.777466,16.895802 492.908234,19.123917 
	C490.068115,26.403877 487.234833,33.686512 484.525726,40.642548 
	C486.207825,40.642548 488.522552,40.642548 491.259064,40.642548 
	C488.607178,38.419567 487.877655,34.677242 490.213623,33.681652 
	C493.184998,32.415234 497.396545,32.094177 500.287079,33.280907 
	C502.272369,34.095982 503.890930,38.179008 499.637115,40.846794 
	C507.459747,40.846794 514.560974,40.846794 520.616577,40.846794 
	C520.616577,31.720249 520.616577,22.614227 520.616577,13.361412 
	C517.484680,13.361412 515.399597,13.361412 514.422363,13.361412 
	C514.422363,21.574699 514.483276,29.572645 514.328552,37.566422 
	C514.312988,38.369297 512.849487,39.886436 512.304443,39.782291 
	C511.168701,39.565273 509.739319,38.710785 509.248047,37.714977 
	C507.931763,35.046753 507.046417,32.165951 505.750061,28.629827 
M570.321228,23.635057 
	C567.686829,23.210470 565.052490,22.785883 562.906128,22.439953 
	C562.906128,28.964680 562.906128,34.884697 562.906128,40.846138 
	C565.232239,40.846138 567.851440,40.846138 569.488403,40.846138 
	C569.412354,36.221268 569.208557,31.772175 569.386414,27.338373 
	C569.418518,26.537174 571.059570,25.149353 571.883118,25.201965 
	C572.833862,25.262701 574.433105,26.575539 574.483337,27.420078 
	C574.745789,31.832077 574.605835,36.268017 574.605835,40.779297 
	C576.479797,40.779297 579.237732,40.779297 580.525330,40.779297 
	C580.525330,35.878765 580.451904,31.219492 580.624756,26.569365 
	C580.644775,26.030880 582.180237,24.994650 582.753235,25.149658 
	C583.843933,25.444677 585.550781,26.385994 585.595703,27.142511 
	C585.862976,31.640083 585.727783,36.161572 585.727783,40.816032 
	C587.320679,40.816032 590.100281,40.816032 592.173462,40.816032 
	C591.993347,36.940289 591.758240,33.247993 591.663574,29.552099 
	C591.483154,22.505291 589.205078,20.876350 582.592529,23.032423 
	C581.471252,23.398024 580.194580,23.369699 578.988831,23.376966 
	C576.323364,23.393032 573.657288,23.315914 570.321228,23.635057 
M663.323608,22.504889 
	C660.245361,22.504889 657.167053,22.504889 654.971924,22.504889 
	C655.140320,27.421156 655.350159,31.848591 655.427124,36.278336 
	C655.502808,40.628819 655.443604,44.981644 655.443604,49.212368 
	C657.439880,49.212368 660.459167,49.212368 662.435608,49.212368 
	C661.845825,46.541424 661.294495,44.044682 660.708801,41.392242 
	C670.778809,41.223808 673.787476,38.740791 673.708679,31.251791 
	C673.638367,24.577995 671.054016,22.129034 663.323608,22.504889 
M650.766479,36.062634 
	C650.918640,33.919189 651.238892,31.771751 651.188049,29.633131 
	C651.082275,25.181913 648.883972,22.233500 644.264587,22.173166 
	C640.066040,22.118334 635.859192,22.701618 632.330078,22.955170 
	C632.330078,31.841637 632.330078,40.467270 632.330078,49.163788 
	C634.956055,49.163788 638.094971,49.163788 640.126892,49.163788 
	C639.609558,46.424950 639.137390,43.925644 638.605286,41.108829 
	C643.771545,41.451561 648.233337,41.862354 650.766479,36.062634 
M607.845886,29.193542 
	C606.207092,33.042286 604.568237,36.891029 602.969604,40.645355 
	C604.900818,40.645355 607.323242,40.645355 610.949036,40.645355 
	C608.936035,39.510231 608.013489,38.990028 606.111938,37.917778 
	C608.066833,35.876534 609.555481,33.005573 611.614075,32.511986 
	C614.084167,31.919764 617.428833,32.750504 619.623169,34.163319 
	C620.735962,34.879780 620.153503,38.229397 620.367004,40.736549 
	C622.801575,40.736549 626.294250,40.736549 629.766296,40.736549 
	C628.604919,38.367035 627.421265,36.293949 626.545349,34.098133 
	C624.335693,28.558226 622.410889,22.899183 620.028137,17.437895 
	C619.477844,16.176647 617.558167,14.796069 616.254211,14.781719 
	C614.945740,14.767321 613.024536,16.100527 612.413940,17.351662 
	C610.677246,20.910521 609.471863,24.728643 607.845886,29.193542 
M539.480469,24.131731 
	C535.585327,21.102982 531.307251,21.887936 527.148987,23.209980 
	C526.566467,23.395166 526.625427,25.597818 526.505066,26.239666 
	C529.072571,25.541946 531.256165,24.427458 533.296570,24.646484 
	C534.131287,24.736088 534.656311,27.709850 535.396362,29.556459 
	C532.394043,30.001097 529.796814,29.670315 528.278259,30.795431 
	C526.463989,32.139748 524.711975,34.640511 524.487915,36.801548 
	C524.169189,39.875626 526.693848,41.426086 529.810730,41.309593 
	C533.844543,41.158836 537.874084,40.895443 541.606689,40.696468 
	C541.298035,38.704544 540.895691,36.709862 540.697937,34.695099 
	C540.375244,31.407551 540.185913,28.106915 539.480469,24.131731 
M549.510132,41.025887 
	C551.226135,41.025887 552.942200,41.025887 555.327881,41.025887 
	C552.523376,38.740959 550.536621,30.080257 552.483459,28.597347 
	C554.212402,27.280394 557.124084,27.516014 559.720825,27.027349 
	C559.720825,26.073788 559.720825,24.129377 559.720825,21.314611 
	C556.900208,22.784897 554.634460,23.965937 552.407959,25.126514 
	C550.645203,20.489798 547.215515,23.312918 543.885498,22.811371 
	C547.043884,26.222767 547.202698,36.541576 544.541321,41.025887 
	C545.994263,41.025887 547.314514,41.025887 549.510132,41.025887 
z"/>
<path fill="#FFFFFF" opacity="1.000000" stroke="none" 
	d="
M1076.301880,308.047241 
	C1075.048096,308.678467 1073.795166,309.858826 1072.540283,309.861084 
	C1035.494995,309.927673 998.449524,309.877197 961.136108,309.505615 
	C960.868164,309.165955 960.912842,309.100647 961.325500,308.862610 
	C961.901306,280.057190 962.077148,251.489868 962.174011,222.922287 
	C962.177368,221.933731 961.390137,220.942490 960.971436,219.952515 
	C960.971436,219.952499 960.910706,219.902542 960.886902,219.870667 
	C962.404846,219.611755 963.946289,219.189240 965.488464,219.186356 
	C1002.002380,219.118042 1038.516357,219.094879 1075.523926,219.537964 
	C1076.112427,249.357407 1076.207153,278.702332 1076.301880,308.047241 
M988.244568,239.999680 
	C988.157349,242.271088 987.602966,244.679214 988.208435,246.747833 
	C988.457336,247.598068 991.205139,247.716843 993.185730,248.271851 
	C991.349976,246.856339 990.066467,245.866669 988.050720,244.312378 
	C990.947693,243.606247 992.599670,243.203583 994.291626,242.791199 
	C992.633789,238.100754 992.552917,238.064117 988.984497,240.014114 
	C988.984497,240.014114 989.021606,239.972031 988.244568,239.999680 
M978.334473,235.859406 
	C975.852600,239.210342 976.074219,239.546234 980.414673,242.105698 
	C981.573853,242.789246 982.187256,244.398270 983.051147,245.582413 
	C981.495178,245.948700 979.950378,246.389481 978.375000,246.626846 
	C977.999939,246.683380 977.522461,246.059830 977.092102,245.749115 
	C976.952332,246.285751 976.812500,246.822403 976.672668,247.359055 
	C978.626404,247.512558 980.669617,248.068451 982.498840,247.661758 
	C983.520813,247.434555 985.018311,245.431915 984.828796,244.543320 
	C984.506653,243.032623 983.291382,241.336349 981.959961,240.507843 
	C980.108765,239.355942 977.730652,238.983490 979.687622,235.887589 
	C981.272156,236.128784 982.856628,236.369980 984.441162,236.611176 
	C984.409973,236.152283 984.378784,235.693375 984.347595,235.234467 
	C982.565186,235.495926 980.782715,235.757385 978.334473,235.859406 
M997.122498,242.468292 
	C997.122498,244.234787 997.122498,246.001282 997.122498,247.767776 
	C997.449097,247.737747 997.775635,247.707703 998.102234,247.677673 
	C998.102234,243.219055 998.102234,238.760452 998.102234,234.301834 
	C997.775696,234.299377 997.449158,234.296921 997.122620,234.294464 
	C997.122620,236.721146 997.122620,239.147812 997.122498,242.468292 
M1021.649719,242.841431 
	C1021.649719,241.184097 1021.649719,239.526764 1021.649719,237.869431 
	C1018.863708,244.641312 1019.696594,247.642242 1022.525757,247.420685 
	C1022.244019,246.192337 1021.946594,244.895828 1021.649719,242.841431 
z"/>
<path fill="#FFFFFF" opacity="1.000000" stroke="none" 
	d="
M1150.913574,221.119202 
	C1150.913574,249.873123 1150.913574,278.627045 1150.913574,307.938995 
	C1126.819458,307.938995 1102.932617,307.938995 1078.510620,307.469971 
	C1077.975464,278.417267 1077.975464,249.833603 1077.975464,221.119202 
	C1102.669678,221.119202 1126.791626,221.119202 1150.913574,221.119202 
M1116.019531,266.249146 
	C1116.910156,265.505463 1117.761597,264.707001 1118.702393,264.033600 
	C1119.650879,263.354797 1120.688232,262.800262 1121.686646,262.191284 
	C1121.482178,261.802521 1121.277710,261.413757 1121.073364,261.024994 
	C1119.474243,260.877136 1117.875122,260.729248 1117.110474,260.658539 
	C1116.000244,258.443176 1115.154663,256.756042 1114.309082,255.068954 
	C1113.562012,256.828766 1112.814819,258.588562 1111.956543,260.610138 
	C1110.598877,260.758179 1108.887817,260.944794 1107.176880,261.131378 
	C1107.033447,261.699768 1106.889893,262.268127 1106.746460,262.836487 
	C1108.639526,263.413910 1110.532593,263.991333 1111.976074,264.431580 
	C1112.797241,266.222870 1113.533569,267.829346 1114.270020,269.435852 
	C1114.852539,268.641174 1115.435059,267.846527 1116.019531,266.249146 
z"/>
<path fill="#503848" opacity="1.000000" stroke="none" 
	d="
M1151.048462,220.795776 
	C1126.791626,221.119202 1102.669678,221.119202 1077.975464,221.119202 
	C1077.975464,249.833603 1077.975464,278.417267 1078.049927,307.458435 
	C1077.720581,307.975708 1077.316895,308.035522 1076.607422,308.071289 
	C1076.207153,278.702332 1076.112427,249.357407 1075.932373,219.557816 
	C1099.882935,219.082565 1123.918579,219.043442 1147.954224,219.102173 
	C1149.031616,219.104797 1150.107056,219.995377 1151.048462,220.795776 
z"/>
<path fill="#E1B410" opacity="1.000000" stroke="none" 
	d="
M553.095947,155.689163 
	C550.583191,147.468140 550.363831,139.573410 552.878784,131.737091 
	C554.787476,125.789825 558.687988,122.952293 564.228516,123.045654 
	C569.485168,123.134216 573.215576,125.980919 575.108215,131.720688 
	C577.521240,139.039017 577.441162,146.494736 575.478271,153.876572 
	C573.840271,160.036575 570.258301,163.250931 564.878540,163.621857 
	C559.172546,164.015259 555.404114,161.201797 553.095947,155.689163 
M566.066040,127.729477 
	C562.478699,124.264900 561.140625,127.459763 561.034607,130.015488 
	C560.672913,138.734634 560.724976,147.479828 560.960815,156.205856 
	C560.998413,157.598450 562.790344,158.943604 563.771301,160.310669 
	C564.880554,158.871658 566.931702,157.441818 566.945862,155.992142 
	C567.035278,146.800980 566.674194,137.605438 566.066040,127.729477 
z"/>
<path fill="#E1B410" opacity="1.000000" stroke="none" 
	d="
M682.813782,144.235458 
	C689.561890,150.738449 687.833862,160.245667 679.277283,162.397675 
	C674.297424,163.650162 668.778992,162.916183 663.516541,162.716080 
	C662.762817,162.687408 661.668579,160.696747 661.467468,159.491379 
	C661.127136,157.451797 661.374023,155.314224 662.481323,152.685410 
	C663.215576,153.626236 664.239258,154.459885 664.634155,155.526352 
	C666.383850,160.251999 671.044983,162.051010 675.031616,159.300781 
	C678.427795,156.957840 678.963623,153.193970 677.796509,149.926437 
	C677.032410,147.787140 674.213196,146.317230 672.178650,144.720581 
	C670.952637,143.758438 669.466309,143.128159 668.096924,142.348755 
	C669.382080,141.642151 670.880615,141.158218 671.903503,140.177933 
	C673.528992,138.620041 675.953918,136.768539 676.014465,134.972961 
	C676.102539,132.360138 675.069580,129.010498 673.275635,127.208740 
	C670.990112,124.913269 667.075500,126.816406 665.940247,130.038177 
	C665.493774,131.305069 664.918701,132.526642 664.181335,134.299911 
	C660.433899,127.369179 661.845825,124.150505 668.211853,123.416855 
	C670.186096,123.189331 672.220032,123.082260 674.188904,123.285545 
	C678.800537,123.761703 683.237732,124.814972 684.815430,130.022079 
	C686.298279,134.915970 684.640747,138.502060 679.185791,142.442917 
	C680.372070,143.017319 681.437073,143.533035 682.813782,144.235458 
z"/>
<path fill="#E1B410" opacity="1.000000" stroke="none" 
	d="
M646.849609,130.280624 
	C643.399658,130.280319 640.427673,130.280319 637.114868,130.280319 
	C637.114868,133.717682 637.114868,136.780838 637.114868,140.004257 
	C640.473267,140.004257 643.635437,139.759979 646.746155,140.055832 
	C652.941589,140.645065 656.444519,144.382950 656.845520,150.387772 
	C657.255798,156.531372 654.143372,161.766769 648.368469,162.744125 
	C643.717163,163.531342 638.822632,163.040848 634.050964,162.809311 
	C633.210754,162.768539 631.935974,161.309189 631.746216,160.333038 
	C631.310608,158.092133 631.420349,155.745224 631.308777,153.441345 
	C631.783997,153.199554 632.259216,152.957748 632.734497,152.715958 
	C633.478943,153.866623 634.129944,155.093521 634.990845,156.149109 
	C636.129456,157.545074 637.385376,159.847717 638.674866,159.906082 
	C641.227234,160.021591 645.699890,159.411179 646.074768,158.132370 
	C647.208496,154.264679 647.408875,149.798157 646.582703,145.856384 
	C646.290833,144.463379 642.052856,143.543167 639.496338,143.100586 
	C637.720642,142.793167 635.739868,143.670288 633.487671,144.085068 
	C633.487671,137.116379 633.487671,130.693405 633.487671,123.974602 
	C640.141174,123.974602 646.732056,123.974602 653.642456,123.974602 
	C653.642456,125.895706 653.642456,127.796234 653.642456,130.280930 
	C651.532471,130.280930 649.429993,130.280930 646.849609,130.280624 
z"/>
<path fill="#E1B410" opacity="1.000000" stroke="none" 
	d="
M477.855835,150.854202 
	C482.926941,145.864807 487.382904,140.965469 487.095306,133.507996 
	C486.960999,130.024628 486.014038,127.104965 482.159119,126.493141 
	C478.366516,125.891212 476.166168,127.621910 475.818329,131.625366 
	C475.756195,132.340637 474.788757,132.977249 473.402832,134.674622 
	C473.402832,130.617554 473.402832,127.804619 473.402832,124.095581 
	C477.024200,123.840836 480.973358,123.022751 484.805939,123.397415 
	C495.202850,124.413757 499.247803,133.906494 492.762482,142.213699 
	C490.035797,145.706375 486.297546,148.414154 482.988037,151.444748 
	C481.651611,152.668594 480.231964,153.801590 477.711426,155.943665 
	C484.627380,155.943665 490.262604,155.943665 496.198303,155.943665 
	C496.198303,158.579056 496.198303,160.488876 496.198303,162.717682 
	C488.056000,162.717682 480.004547,162.717682 471.904846,162.717682 
	C469.645844,156.684906 474.854645,154.502106 477.855835,150.854202 
z"/>
<path fill="#E1B410" opacity="1.000000" stroke="none" 
	d="
M505.337219,153.395477 
	C507.998108,150.605347 511.127411,148.436752 512.642395,145.449448 
	C514.737122,141.318924 516.215088,136.635635 516.703064,132.055466 
	C516.883179,130.365448 513.822998,127.365074 511.669800,126.626106 
	C508.712524,125.611229 506.309357,127.435310 505.928223,131.056168 
	C505.831329,131.976730 504.990173,132.818939 504.491028,133.697159 
	C504.069733,133.622040 503.648438,133.546921 503.227142,133.471802 
	C503.086548,130.661789 502.945984,127.851791 502.771881,124.371918 
	C506.284149,123.948921 509.517883,123.209755 512.741211,123.252525 
	C517.684448,123.318130 522.655212,124.206894 524.834900,129.475433 
	C527.042603,134.811737 525.380493,139.702713 521.580566,143.715622 
	C518.844666,146.604828 515.653992,149.062637 512.674438,151.722122 
	C511.385925,152.872238 510.118225,154.045700 507.858429,156.103226 
	C514.732422,156.103226 520.287109,156.103226 526.170959,156.103226 
	C526.170959,158.520782 526.170959,160.430969 526.170959,162.685150 
	C518.112061,162.685150 510.063049,162.685150 501.943451,162.685150 
	C500.157227,158.651901 502.381989,156.069855 505.337219,153.395477 
z"/>
<path fill="#E1B410" opacity="1.000000" stroke="none" 
	d="
M590.528076,155.854858 
	C590.529175,147.276382 590.529175,139.179810 590.529175,130.814240 
	C587.899048,131.246933 586.018982,131.556213 583.945007,131.897400 
	C585.879517,127.531410 593.783569,123.230988 599.030273,123.734100 
	C599.030273,135.584534 599.030273,147.494370 599.030273,159.295761 
	C601.704712,159.964813 603.890320,160.511581 606.075989,161.058350 
	C606.010803,161.520508 605.945679,161.982666 605.880493,162.444824 
	C598.641113,162.444824 591.401733,162.444824 584.162354,162.444824 
	C584.018799,162.183975 583.875183,161.923141 583.731628,161.662292 
	C584.921631,161.121765 586.102783,160.152237 587.303406,160.127533 
	C590.041748,160.071182 590.768250,158.717728 590.528076,155.854858 
z"/>
<path fill="#E1B410" opacity="1.000000" stroke="none" 
	d="
M614.019958,158.221252 
	C615.944214,156.619751 617.790894,154.586166 619.733093,154.490433 
	C620.971436,154.429382 623.152222,157.113693 623.416626,158.801117 
	C623.631592,160.172821 621.971741,162.463882 620.530884,163.338181 
	C617.598816,165.117416 615.028381,163.079208 614.019958,158.221252 
z"/>
<path fill="#E1B410" opacity="1.000000" stroke="none" 
	d="
M543.089478,161.123138 
	C539.029968,164.785110 534.849426,164.272949 534.203430,160.206619 
	C533.959534,158.671921 534.629517,156.230515 535.753479,155.439301 
	C537.058228,154.520889 540.056335,154.152908 540.991638,155.004425 
	C542.358582,156.248932 542.543274,158.792053 543.089478,161.123138 
z"/>
<path fill="#E1B410" opacity="1.000000" stroke="none" 
	d="
M617.356689,135.096542 
	C621.169678,134.607605 623.595337,136.263855 623.456726,139.502167 
	C623.383118,141.220978 621.293213,143.690781 619.601562,144.237549 
	C618.252869,144.673477 615.372620,143.158905 614.514954,141.713486 
	C612.989197,139.141983 614.129883,136.618820 617.356689,135.096542 
z"/>
<path fill="#E1B410" opacity="1.000000" stroke="none" 
	d="
M540.460815,135.178757 
	C543.623718,137.108871 544.806030,139.724350 542.642090,142.355103 
	C541.586121,143.638855 538.495239,144.657822 537.242371,144.013565 
	C535.679688,143.210037 534.153564,140.525391 534.237488,138.728912 
	C534.385071,135.570389 537.056580,134.600433 540.460815,135.178757 
z"/>
<path fill="#7E7E7E" opacity="1.000000" stroke="none" 
	d="
M175.860443,276.837280 
	C174.658661,275.854645 173.316391,274.791870 173.213638,273.620392 
	C172.909149,270.148407 173.439056,266.583282 172.940079,263.156860 
	C172.692505,261.456726 170.905304,259.980774 169.814636,258.403412 
	C168.161255,259.916931 165.484924,261.195801 165.072418,262.993988 
	C164.271423,266.485504 164.898621,270.281677 164.597702,273.923798 
	C164.497360,275.138092 163.369476,276.267487 162.711319,277.435699 
	C162.224716,277.219452 161.738129,277.003204 161.251526,276.786957 
	C161.251526,270.004425 161.251526,263.221893 161.251526,255.406906 
	C166.131958,256.120300 171.003021,256.910278 175.899658,257.480652 
	C176.849960,257.591370 177.942520,256.935547 178.897034,256.481171 
	C184.732254,253.703217 188.770096,256.104797 188.966888,262.627655 
	C189.092392,266.788055 188.996094,270.955566 188.968979,275.119690 
	C188.965866,275.596069 188.767456,276.071228 188.249191,278.357269 
	C186.774094,276.303589 185.466324,275.306610 185.382263,274.215332 
	C185.101547,270.571594 185.587097,266.850220 185.105789,263.248566 
	C184.876389,261.531982 183.127563,260.018494 182.066986,258.412994 
	C180.385422,259.896912 177.590424,261.157928 177.239975,262.908356 
	C176.342331,267.391968 176.531723,272.093201 175.860443,276.837280 
z"/>
<path fill="#7E7E7E" opacity="1.000000" stroke="none" 
	d="
M35.832710,270.974365 
	C35.610420,269.592377 35.375004,268.611420 35.332745,267.622223 
	C34.893055,257.329865 39.291561,253.815353 49.040852,256.782196 
	C49.612949,253.863647 50.159645,250.951904 50.849293,248.074417 
	C50.873074,247.975189 52.327015,248.218704 53.256355,248.317566 
	C53.256355,257.821747 53.256355,267.109833 53.256355,275.988770 
	C49.852291,276.480743 46.581081,277.204742 43.282341,277.366150 
	C39.234673,277.564178 36.786682,275.316284 35.832710,270.974365 
M39.522530,262.382690 
	C39.550014,265.161133 39.056602,268.089111 39.795765,270.663208 
	C40.256481,272.267670 42.538052,274.311554 44.077972,274.376862 
	C45.660660,274.443909 48.217358,272.661072 48.768806,271.122009 
	C49.662151,268.628754 49.844971,265.531921 49.217499,262.960938 
	C48.772423,261.137299 46.666969,258.764374 44.989407,258.479187 
	C43.477211,258.222107 41.539204,260.470001 39.522530,262.382690 
z"/>
<path fill="#7E7E7E" opacity="1.000000" stroke="none" 
	d="
M70.753395,257.208618 
	C71.524490,254.486099 71.978691,251.562805 72.713364,246.834335 
	C74.177460,248.895782 75.595032,249.968903 75.619370,251.072708 
	C75.806068,259.540588 75.721954,268.014465 75.721954,275.963806 
	C72.184860,276.492432 69.040855,277.080994 65.869545,277.377777 
	C64.602982,277.496338 63.162930,277.221466 61.997086,276.694092 
	C57.747383,274.771729 56.087605,265.109161 58.932327,259.464630 
	C61.057552,255.247726 64.843384,254.439224 70.753395,257.208618 
M65.706451,258.175385 
	C61.265587,260.653595 59.438080,269.847961 63.213268,273.014465 
	C64.569031,274.151642 69.216080,274.025970 69.526962,273.285980 
	C70.855438,270.123901 71.829849,266.447113 71.498291,263.100250 
	C71.319153,261.292023 68.248329,259.770294 65.706451,258.175385 
z"/>
<path fill="#7E7E7E" opacity="1.000000" stroke="none" 
	d="
M89.333542,271.197052 
	C92.058899,264.561981 94.541176,258.234070 97.268173,252.013489 
	C97.759483,250.892761 99.156914,249.740402 100.325653,249.490829 
	C101.155037,249.313705 102.838791,250.403366 103.225792,251.315857 
	C106.711670,259.535065 109.995026,267.840179 113.368599,276.196320 
	C109.762245,278.238953 108.885422,275.709198 108.398659,273.536652 
	C107.545425,269.728485 105.432159,268.504547 101.681168,268.960297 
	C98.015129,269.405701 93.557335,267.490021 92.289345,273.410706 
	C91.952583,274.983124 89.945053,276.197754 88.704651,277.576630 
	C88.263039,277.221436 87.821434,276.866241 87.379829,276.511047 
	C87.977966,274.854340 88.576103,273.197632 89.333542,271.197052 
M96.198029,265.632965 
	C99.060753,265.632965 101.923477,265.632965 105.289421,265.632965 
	C103.630760,261.347900 102.145302,257.510284 100.324379,252.806015 
	C98.665527,257.401306 97.327286,261.108429 96.198029,265.632965 
z"/>
<path fill="#7E7E7E" opacity="1.000000" stroke="none" 
	d="
M22.781893,250.197540 
	C26.450310,259.083557 29.916891,267.660431 33.383472,276.237274 
	C33.005405,276.617126 32.627335,276.996979 32.249268,277.376831 
	C31.115337,276.510498 29.553802,275.876221 28.932657,274.731598 
	C27.441841,271.984406 27.399851,268.441193 22.505964,268.870117 
	C17.751608,269.286743 12.807569,268.153168 11.681797,274.965179 
	C11.516941,275.962738 9.349586,276.629364 8.108788,277.449097 
	C7.826469,277.102020 7.544151,276.754913 7.261834,276.407837 
	C10.561579,268.291718 13.908636,260.194336 17.135088,252.049179 
	C18.245623,249.245636 19.985399,248.644440 22.781893,250.197540 
M21.352350,255.484650 
	C21.120188,254.869583 20.888025,254.254517 20.392820,252.942581 
	C18.662443,257.434937 17.154144,261.350708 15.470026,265.722961 
	C19.013573,265.722961 21.875551,265.722961 25.232183,265.722961 
	C23.950769,262.267975 22.811089,259.195129 21.352350,255.484650 
z"/>
<path fill="#7E7E7E" opacity="1.000000" stroke="none" 
	d="
M141.965088,263.386566 
	C142.672653,267.926941 139.849747,272.869507 145.130310,275.864441 
	C144.960312,276.274445 144.790329,276.684418 144.620331,277.094421 
	C142.331894,276.597473 140.043457,276.100494 137.755020,275.603546 
	C137.815506,275.804260 137.875992,276.005005 137.936478,276.205719 
	C134.233810,276.265930 130.398621,276.893524 126.900795,276.076569 
	C125.687286,275.793152 124.301613,271.709229 124.731163,269.739960 
	C126.311790,262.493561 133.065460,264.867798 138.310181,263.531494 
	C136.110306,253.033371 129.946045,261.803101 125.520073,261.230133 
	C126.891121,255.837570 130.692871,255.308243 134.496323,255.430054 
	C139.109879,255.577759 141.974213,257.952759 141.965088,263.386566 
M128.499023,272.777039 
	C130.664825,273.097565 133.300659,274.319275 134.871841,273.499817 
	C136.648529,272.573120 137.469269,269.813629 139.015060,267.360107 
	C130.171768,266.354980 128.976562,266.982208 128.499023,272.777039 
z"/>
<path fill="#7E7E7E" opacity="1.000000" stroke="none" 
	d="
M147.672104,260.395233 
	C147.841064,256.999268 147.825958,257.221771 151.275146,257.455994 
	C152.501068,257.539215 153.763519,256.043549 155.119766,255.673401 
	C155.830536,255.479385 156.780365,256.161255 157.622238,256.447601 
	C157.268814,257.224579 156.974396,258.642487 156.552994,258.681305 
	C151.217728,259.172668 151.659256,263.229919 151.443954,266.802795 
	C151.294891,269.276093 151.626236,271.793640 151.307419,274.234558 
	C151.160614,275.358612 149.970505,276.346405 149.253479,277.395966 
	C148.727554,277.133636 148.201630,276.871307 147.675705,276.609009 
	C147.675705,271.352936 147.675705,266.096893 147.672104,260.395233 
z"/>
<path fill="#7E7E7E" opacity="1.000000" stroke="none" 
	d="
M120.025040,271.816406 
	C119.955841,273.759277 119.886642,275.224945 119.817451,276.690613 
	C119.356415,276.930176 118.895378,277.169769 118.434341,277.409332 
	C117.715401,276.312286 116.399086,275.228973 116.373520,274.115967 
	C116.194290,266.313843 116.202454,258.503876 116.376671,250.701462 
	C116.400246,249.645782 117.685020,248.618256 118.385803,247.577698 
	C118.932213,247.773743 119.478622,247.969803 120.025032,248.165848 
	C120.025032,255.890289 120.025032,263.614716 120.025040,271.816406 
z"/>
<path fill="#7E7E7E" opacity="1.000000" stroke="none" 
	d="
M960.971680,220.424347 
	C961.390137,220.942490 962.177368,221.933731 962.174011,222.922287 
	C962.077148,251.489868 961.901306,280.057190 961.354858,308.836121 
	C960.971741,279.663849 960.971863,250.280014 960.971680,220.424347 
z"/>
<path fill="#060B0D" opacity="1.000000" stroke="none" 
	d="
M505.869995,28.999708 
	C507.046417,32.165951 507.931763,35.046753 509.248047,37.714977 
	C509.739319,38.710785 511.168701,39.565273 512.304443,39.782291 
	C512.849487,39.886436 514.312988,38.369297 514.328552,37.566422 
	C514.483276,29.572645 514.422363,21.574699 514.422363,13.361412 
	C515.399597,13.361412 517.484680,13.361412 520.616577,13.361412 
	C520.616577,22.614227 520.616577,31.720249 520.616577,40.846794 
	C514.560974,40.846794 507.459747,40.846794 499.637115,40.846794 
	C503.890930,38.179008 502.272369,34.095982 500.287079,33.280907 
	C497.396545,32.094177 493.184998,32.415234 490.213623,33.681652 
	C487.877655,34.677242 488.607178,38.419567 491.259064,40.642548 
	C488.522552,40.642548 486.207825,40.642548 484.525726,40.642548 
	C487.234833,33.686512 490.068115,26.403877 492.908234,19.123917 
	C493.777466,16.895802 493.974243,14.406260 497.606171,14.458099 
	C501.304199,14.510883 501.241211,17.209244 502.124664,19.350615 
	C503.390961,22.419832 504.546997,25.534531 505.869995,28.999708 
M492.918121,25.708923 
	C492.526794,27.021265 492.135498,28.333607 491.697205,29.803425 
	C494.485718,29.803425 496.719421,29.803425 499.477142,29.803425 
	C498.150330,26.099072 496.957855,22.769779 495.567200,18.887257 
	C494.592438,21.303965 493.859558,23.120914 492.918121,25.708923 
z"/>
<path fill="#060B0D" opacity="1.000000" stroke="none" 
	d="
M570.656372,23.455933 
	C573.657288,23.315914 576.323364,23.393032 578.988831,23.376966 
	C580.194580,23.369699 581.471252,23.398024 582.592529,23.032423 
	C589.205078,20.876350 591.483154,22.505291 591.663574,29.552099 
	C591.758240,33.247993 591.993347,36.940289 592.173462,40.816032 
	C590.100281,40.816032 587.320679,40.816032 585.727783,40.816032 
	C585.727783,36.161572 585.862976,31.640083 585.595703,27.142511 
	C585.550781,26.385994 583.843933,25.444677 582.753235,25.149658 
	C582.180237,24.994650 580.644775,26.030880 580.624756,26.569365 
	C580.451904,31.219492 580.525330,35.878765 580.525330,40.779297 
	C579.237732,40.779297 576.479797,40.779297 574.605835,40.779297 
	C574.605835,36.268017 574.745789,31.832077 574.483337,27.420078 
	C574.433105,26.575539 572.833862,25.262701 571.883118,25.201965 
	C571.059570,25.149353 569.418518,26.537174 569.386414,27.338373 
	C569.208557,31.772175 569.412354,36.221268 569.488403,40.846138 
	C567.851440,40.846138 565.232239,40.846138 562.906128,40.846138 
	C562.906128,34.884697 562.906128,28.964680 562.906128,22.439953 
	C565.052490,22.785883 567.686829,23.210470 570.656372,23.455933 
z"/>
<path fill="#060B0D" opacity="1.000000" stroke="none" 
	d="
M663.763062,22.374245 
	C671.054016,22.129034 673.638367,24.577995 673.708679,31.251791 
	C673.787476,38.740791 670.778809,41.223808 660.708801,41.392242 
	C661.294495,44.044682 661.845825,46.541424 662.435608,49.212368 
	C660.459167,49.212368 657.439880,49.212368 655.443604,49.212368 
	C655.443604,44.981644 655.502808,40.628819 655.427124,36.278336 
	C655.350159,31.848591 655.140320,27.421156 654.971924,22.504889 
	C657.167053,22.504889 660.245361,22.504889 663.763062,22.374245 
M667.141052,26.751535 
	C665.704895,26.049152 664.268738,25.346767 662.832581,24.644375 
	C662.266663,25.983458 661.313232,27.294064 661.212280,28.667309 
	C660.972107,31.936348 661.134827,35.234997 661.134827,38.454338 
	C665.214294,40.122253 667.244507,38.544640 667.637024,34.888123 
	C667.897278,32.463795 667.510742,29.970041 667.141052,26.751535 
z"/>
<path fill="#060B0D" opacity="1.000000" stroke="none" 
	d="
M650.593933,36.402744 
	C648.233337,41.862354 643.771545,41.451561 638.605286,41.108829 
	C639.137390,43.925644 639.609558,46.424950 640.126892,49.163788 
	C638.094971,49.163788 634.956055,49.163788 632.330078,49.163788 
	C632.330078,40.467270 632.330078,31.841637 632.330078,22.955170 
	C635.859192,22.701618 640.066040,22.118334 644.264587,22.173166 
	C648.883972,22.233500 651.082275,25.181913 651.188049,29.633131 
	C651.238892,31.771751 650.918640,33.919189 650.593933,36.402744 
M640.379395,39.047043 
	C643.144531,39.513103 645.227722,38.500755 645.093323,35.596333 
	C644.927307,32.008419 644.677063,28.178877 643.243408,25.004658 
	C642.583130,23.542776 639.053833,23.807417 639.035034,27.119955 
	C639.012817,31.029411 639.332825,34.940811 640.379395,39.047043 
z"/>
<path fill="#060B0D" opacity="1.000000" stroke="none" 
	d="
M607.951599,28.819126 
	C609.471863,24.728643 610.677246,20.910521 612.413940,17.351662 
	C613.024536,16.100527 614.945740,14.767321 616.254211,14.781719 
	C617.558167,14.796069 619.477844,16.176647 620.028137,17.437895 
	C622.410889,22.899183 624.335693,28.558226 626.545349,34.098133 
	C627.421265,36.293949 628.604919,38.367035 629.766296,40.736549 
	C626.294250,40.736549 622.801575,40.736549 620.367004,40.736549 
	C620.153503,38.229397 620.735962,34.879780 619.623169,34.163319 
	C617.428833,32.750504 614.084167,31.919764 611.614075,32.511986 
	C609.555481,33.005573 608.066833,35.876534 606.111938,37.917778 
	C608.013489,38.990028 608.936035,39.510231 610.949036,40.645355 
	C607.323242,40.645355 604.900818,40.645355 602.969604,40.645355 
	C604.568237,36.891029 606.207092,33.042286 607.951599,28.819126 
M615.294250,21.631046 
	C615.080383,21.007833 614.866577,20.384623 614.278015,18.669548 
	C612.717285,22.906322 611.479370,26.266731 610.222961,29.677397 
	C613.170044,29.677397 615.528992,29.677397 618.183960,29.677397 
	C617.233093,26.928423 616.427246,24.598797 615.294250,21.631046 
z"/>
<path fill="#060B0D" opacity="1.000000" stroke="none" 
	d="
M539.710449,24.471767 
	C540.185913,28.106915 540.375244,31.407551 540.697937,34.695099 
	C540.895691,36.709862 541.298035,38.704544 541.606689,40.696468 
	C537.874084,40.895443 533.844543,41.158836 529.810730,41.309593 
	C526.693848,41.426086 524.169189,39.875626 524.487915,36.801548 
	C524.711975,34.640511 526.463989,32.139748 528.278259,30.795431 
	C529.796814,29.670315 532.394043,30.001097 535.396362,29.556459 
	C534.656311,27.709850 534.131287,24.736088 533.296570,24.646484 
	C531.256165,24.427458 529.072571,25.541946 526.505066,26.239666 
	C526.625427,25.597818 526.566467,23.395166 527.148987,23.209980 
	C531.307251,21.887936 535.585327,21.102982 539.710449,24.471767 
M530.045898,34.673180 
	C530.018188,36.875725 530.065552,39.806770 533.080872,38.585011 
	C534.464539,38.024372 534.676697,34.572445 535.420105,32.431667 
	C534.932495,32.127129 534.444946,31.822592 533.957397,31.518053 
	C532.707092,32.298847 531.456848,33.079643 530.045898,34.673180 
z"/>
<path fill="#060B0D" opacity="1.000000" stroke="none" 
	d="
M549.072449,41.025887 
	C547.314514,41.025887 545.994263,41.025887 544.541321,41.025887 
	C547.202698,36.541576 547.043884,26.222767 543.885498,22.811371 
	C547.215515,23.312918 550.645203,20.489798 552.407959,25.126514 
	C554.634460,23.965937 556.900208,22.784897 559.720825,21.314611 
	C559.720825,24.129377 559.720825,26.073788 559.720825,27.027349 
	C557.124084,27.516014 554.212402,27.280394 552.483459,28.597347 
	C550.536621,30.080257 552.523376,38.740959 555.327881,41.025887 
	C552.942200,41.025887 551.226135,41.025887 549.072449,41.025887 
z"/>
<path fill="#7E7E7E" opacity="1.000000" stroke="none" 
	d="
M978.936646,235.948639 
	C977.730652,238.983490 980.108765,239.355942 981.959961,240.507843 
	C983.291382,241.336349 984.506653,243.032623 984.828796,244.543320 
	C985.018311,245.431915 983.520813,247.434555 982.498840,247.661758 
	C980.669617,248.068451 978.626404,247.512558 976.672668,247.359055 
	C976.812500,246.822403 976.952332,246.285751 977.092102,245.749115 
	C977.522461,246.059830 977.999939,246.683380 978.375000,246.626846 
	C979.950378,246.389481 981.495178,245.948700 983.051147,245.582413 
	C982.187256,244.398270 981.573853,242.789246 980.414673,242.105698 
	C976.074219,239.546234 975.852600,239.210342 978.653809,235.919571 
	C978.973145,235.979736 978.936646,235.948639 978.936646,235.948639 
z"/>
<path fill="#7E7E7E" opacity="1.000000" stroke="none" 
	d="
M988.945923,240.054840 
	C992.552917,238.064117 992.633789,238.100754 994.291626,242.791199 
	C992.599670,243.203583 990.947693,243.606247 988.050720,244.312378 
	C990.066467,245.866669 991.349976,246.856339 993.185730,248.271851 
	C991.205139,247.716843 988.457336,247.598068 988.208435,246.747833 
	C987.602966,244.679214 988.157349,242.271088 988.667236,240.414093 
	C989.956421,241.260986 990.822876,241.693481 991.689331,242.125977 
	C991.851868,241.501129 992.014404,240.876297 992.176941,240.251450 
	C991.099976,240.185913 990.022949,240.120361 988.945923,240.054840 
z"/>
<path fill="#7E7E7E" opacity="1.000000" stroke="none" 
	d="
M997.122559,242.021393 
	C997.122620,239.147812 997.122620,236.721146 997.122620,234.294464 
	C997.449158,234.296921 997.775696,234.299377 998.102234,234.301834 
	C998.102234,238.760452 998.102234,243.219055 998.102234,247.677673 
	C997.775635,247.707703 997.449097,247.737747 997.122498,247.767776 
	C997.122498,246.001282 997.122498,244.234787 997.122559,242.021393 
z"/>
<path fill="#7E7E7E" opacity="1.000000" stroke="none" 
	d="
M1021.649414,243.220383 
	C1021.946594,244.895828 1022.244019,246.192337 1022.525757,247.420685 
	C1019.696594,247.642242 1018.863708,244.641312 1021.649719,237.869431 
	C1021.649719,239.526764 1021.649719,241.184097 1021.649414,243.220383 
z"/>
<path fill="#7E7E7E" opacity="1.000000" stroke="none" 
	d="
M978.986694,235.999298 
	C980.782715,235.757385 982.565186,235.495926 984.347595,235.234467 
	C984.378784,235.693375 984.409973,236.152283 984.441162,236.611176 
	C982.856628,236.369980 981.272156,236.128784 979.312134,235.918121 
	C978.936646,235.948639 978.973145,235.979736 978.986694,235.999298 
z"/>
<path fill="#060B0D" opacity="1.000000" stroke="none" 
	d="
M1116.018555,266.650513 
	C1115.435059,267.846527 1114.852539,268.641174 1114.270020,269.435852 
	C1113.533569,267.829346 1112.797241,266.222870 1111.976074,264.431580 
	C1110.532593,263.991333 1108.639526,263.413910 1106.746460,262.836487 
	C1106.889893,262.268127 1107.033447,261.699768 1107.176880,261.131378 
	C1108.887817,260.944794 1110.598877,260.758179 1111.956543,260.610138 
	C1112.814819,258.588562 1113.562012,256.828766 1114.309082,255.068939 
	C1115.154663,256.756042 1116.000244,258.443176 1117.110474,260.658539 
	C1117.875122,260.729248 1119.474243,260.877136 1121.073364,261.024994 
	C1121.277710,261.413757 1121.482178,261.802521 1121.686646,262.191284 
	C1120.688232,262.800262 1119.650879,263.354797 1118.702393,264.033600 
	C1117.761597,264.707001 1116.910156,265.505463 1116.018555,266.650513 
z"/>
<path fill="#FFFFFF" opacity="1.000000" stroke="none" 
	d="
M566.263916,128.070404 
	C566.674194,137.605438 567.035278,146.800980 566.945862,155.992142 
	C566.931702,157.441818 564.880554,158.871658 563.771301,160.310684 
	C562.790344,158.943604 560.998413,157.598450 560.960815,156.205856 
	C560.724976,147.479828 560.672913,138.734634 561.034607,130.015488 
	C561.140625,127.459763 562.478699,124.264900 566.263916,128.070404 
z"/>
<path fill="#FFFFFF" opacity="1.000000" stroke="none" 
	d="
M39.655762,261.997894 
	C41.539204,260.470001 43.477211,258.222107 44.989407,258.479187 
	C46.666969,258.764374 48.772423,261.137299 49.217499,262.960938 
	C49.844971,265.531921 49.662151,268.628754 48.768806,271.122009 
	C48.217358,272.661072 45.660660,274.443909 44.077972,274.376862 
	C42.538052,274.311554 40.256481,272.267670 39.795765,270.663208 
	C39.056602,268.089111 39.550014,265.161133 39.655762,261.997894 
z"/>
<path fill="#FFFFFF" opacity="1.000000" stroke="none" 
	d="
M66.094254,258.147339 
	C68.248329,259.770294 71.319153,261.292023 71.498291,263.100250 
	C71.829849,266.447113 70.855438,270.123901 69.526962,273.285980 
	C69.216080,274.025970 64.569031,274.151642 63.213268,273.014465 
	C59.438080,269.847961 61.265587,260.653595 66.094254,258.147339 
z"/>
<path fill="#FFFFFF" opacity="1.000000" stroke="none" 
	d="
M96.093536,265.224274 
	C97.327286,261.108429 98.665527,257.401306 100.324379,252.806015 
	C102.145302,257.510284 103.630760,261.347900 105.289421,265.632965 
	C101.923477,265.632965 99.060753,265.632965 96.093536,265.224274 
z"/>
<path fill="#FFFFFF" opacity="1.000000" stroke="none" 
	d="
M21.511879,255.803467 
	C22.811089,259.195129 23.950769,262.267975 25.232183,265.722961 
	C21.875551,265.722961 19.013573,265.722961 15.470026,265.722961 
	C17.154144,261.350708 18.662443,257.434937 20.392820,252.942581 
	C20.888025,254.254517 21.120188,254.869583 21.511879,255.803467 
z"/>
<path fill="#FFFFFF" opacity="1.000000" stroke="none" 
	d="
M128.362411,272.421204 
	C128.976562,266.982208 130.171768,266.354980 139.015060,267.360107 
	C137.469269,269.813629 136.648529,272.573120 134.871841,273.499817 
	C133.300659,274.319275 130.664825,273.097565 128.362411,272.421204 
z"/>
<path fill="#74CBED" opacity="1.000000" stroke="none" 
	d="
M493.022400,25.323395 
	C493.859558,23.120914 494.592438,21.303965 495.567200,18.887257 
	C496.957855,22.769779 498.150330,26.099072 499.477142,29.803425 
	C496.719421,29.803425 494.485718,29.803425 491.697205,29.803425 
	C492.135498,28.333607 492.526794,27.021265 493.022400,25.323395 
z"/>
<path fill="#74CBED" opacity="1.000000" stroke="none" 
	d="
M667.277405,27.129452 
	C667.510742,29.970041 667.897278,32.463795 667.637024,34.888123 
	C667.244507,38.544640 665.214294,40.122253 661.134827,38.454338 
	C661.134827,35.234997 660.972107,31.936348 661.212280,28.667309 
	C661.313232,27.294064 662.266663,25.983458 662.832581,24.644379 
	C664.268738,25.346767 665.704895,26.049152 667.277405,27.129452 
z"/>
<path fill="#74CBED" opacity="1.000000" stroke="none" 
	d="
M639.941895,38.949203 
	C639.332825,34.940811 639.012817,31.029411 639.035034,27.119955 
	C639.053833,23.807417 642.583130,23.542776 643.243408,25.004658 
	C644.677063,28.178877 644.927307,32.008419 645.093323,35.596333 
	C645.227722,38.500755 643.144531,39.513103 639.941895,38.949203 
z"/>
<path fill="#74CBED" opacity="1.000000" stroke="none" 
	d="
M615.457825,21.950109 
	C616.427246,24.598797 617.233093,26.928423 618.183960,29.677397 
	C615.528992,29.677397 613.170044,29.677397 610.222961,29.677397 
	C611.479370,26.266731 612.717285,22.906322 614.278015,18.669548 
	C614.866577,20.384623 615.080383,21.007833 615.457825,21.950109 
z"/>
<path fill="#74CBED" opacity="1.000000" stroke="none" 
	d="
M530.126221,34.266808 
	C531.456848,33.079643 532.707092,32.298847 533.957397,31.518053 
	C534.444946,31.822592 534.932495,32.127129 535.420105,32.431667 
	C534.676697,34.572445 534.464539,38.024372 533.080872,38.585011 
	C530.065552,39.806770 530.018188,36.875725 530.126221,34.266808 
z"/>
<path fill="#FFFFFF" opacity="1.000000" stroke="none" 
	d="
M988.965210,240.034470 
	C990.022949,240.120361 991.099976,240.185913 992.176941,240.251450 
	C992.014404,240.876297 991.851868,241.501129 991.689331,242.125977 
	C990.822876,241.693481 989.956421,241.260986 989.055786,240.400269 
	C989.021606,239.972031 988.984497,240.014114 988.965210,240.034470 
z"/>
</svg>